<svg xmlns="http://www.w3.org/2000/svg" viewBox="0 0 158.37 158.39"><defs><style>.cls-1{fill: #62B0E5;}</style></defs><g id="Layer_2" data-name="Layer 2"><g id="Layer_1-2" data-name="Layer 1"><rect class="cls-1" x="140.8" y="105.67" width="17.57" height="17.57"/><rect class="cls-1" x="140.8" y="70.3" width="17.57" height="17.83"/><rect class="cls-1" x="140.8" y="35.13" width="17.57" height="17.59"/><rect class="cls-1" x="123.24" y="105.67" width="17.56" height="17.57"/><rect class="cls-1" x="123.24" y="88.11" width="17.56" height="17.56"/><rect class="cls-1" x="123.24" y="70.3" width="17.56" height="17.83"/><rect class="cls-1" x="123.24" y="52.71" width="17.56" height="17.57"/><rect class="cls-1" x="123.24" y="35.13" width="17.56" height="17.59"/><rect class="cls-1" x="105.68" y="140.8" width="17.56" height="17.59"/><rect class="cls-1" x="105.66" y="123.22" width="17.57" height="17.56"/><rect class="cls-1" x="105.66" y="105.67" width="17.57" height="17.57"/><rect class="cls-1" x="105.66" y="35.13" width="17.57" height="17.59"/><rect class="cls-1" x="105.66" y="17.57" width="17.57" height="17.56"/><rect class="cls-1" x="105.66" width="17.57" height="17.59"/><rect class="cls-1" x="87.84" y="123.22" width="17.83" height="17.56"/><rect class="cls-1" x="87.84" y="88.11" width="17.83" height="17.56"/><rect class="cls-1" x="87.84" y="70.3" width="17.83" height="17.83"/><rect class="cls-1" x="87.84" y="52.71" width="17.83" height="17.57"/><rect class="cls-1" x="87.84" y="17.57" width="17.83" height="17.56"/><rect class="cls-1" x="70.28" y="140.8" width="17.56" height="17.59"/><rect class="cls-1" x="70.27" y="123.22" width="17.57" height="17.56"/><rect class="cls-1" x="70.27" y="88.11" width="17.57" height="17.56"/><rect class="cls-1" x="70.27" y="70.3" width="17.57" height="17.83"/><rect class="cls-1" x="70.27" y="52.71" width="17.57" height="17.57"/><rect class="cls-1" x="70.27" y="17.57" width="17.57" height="17.56"/><rect class="cls-1" x="70.27" width="17.57" height="17.59"/><rect class="cls-1" x="52.71" y="123.22" width="17.57" height="17.56"/><rect class="cls-1" x="52.71" y="88.11" width="17.57" height="17.56"/><rect class="cls-1" x="52.71" y="70.3" width="17.57" height="17.83"/><rect class="cls-1" x="52.71" y="52.71" width="17.57" height="17.57"/><rect class="cls-1" x="52.71" y="17.57" width="17.57" height="17.56"/><rect class="cls-1" x="35.15" y="140.8" width="17.54" height="17.59"/><rect class="cls-1" x="35.15" y="123.22" width="17.56" height="17.56"/><rect class="cls-1" x="35.15" y="105.67" width="17.56" height="17.57"/><rect class="cls-1" x="35.15" y="35.13" width="17.56" height="17.59"/><rect class="cls-1" x="35.15" y="17.57" width="17.56" height="17.56"/><rect class="cls-1" x="35.15" width="17.56" height="17.59"/><rect class="cls-1" x="17.57" y="105.67" width="17.57" height="17.57"/><rect class="cls-1" x="17.57" y="88.11" width="17.57" height="17.56"/><rect class="cls-1" x="17.57" y="70.3" width="17.57" height="17.83"/><rect class="cls-1" x="17.57" y="52.71" width="17.57" height="17.57"/><rect class="cls-1" x="17.57" y="35.13" width="17.57" height="17.59"/><rect class="cls-1" y="105.67" width="17.57" height="17.57"/><rect class="cls-1" y="70.3" width="17.57" height="17.83"/><rect class="cls-1" y="35.13" width="17.57" height="17.59"/></g></g></svg>