<svg xmlns="http://www.w3.org/2000/svg" viewBox="0 0 123.22 140.8"><defs><style>.cls-1{fill:#070c28;}</style></defs><g id="Layer_2" data-name="Layer 2"><g id="Layer_1-2" data-name="Layer 1"><rect class="cls-1" x="105.67" y="52.71" width="17.56" height="17.83"/><rect class="cls-1" x="88.09" y="52.71" width="17.57" height="17.83"/><rect class="cls-1" x="88.09" y="35.13" width="17.57" height="17.57"/><rect class="cls-1" x="70.25" y="123.21" width="17.84" height="17.59"/><rect class="cls-1" x="70.25" y="105.67" width="17.84" height="17.56"/><rect class="cls-1" x="70.25" y="88.08" width="17.84" height="17.59"/><rect class="cls-1" x="70.25" y="70.53" width="17.84" height="17.56"/><rect class="cls-1" x="70.25" y="52.71" width="17.84" height="17.83"/><rect class="cls-1" x="70.25" y="35.13" width="17.84" height="17.57"/><rect class="cls-1" x="70.25" y="17.56" width="17.84" height="17.57"/><rect class="cls-1" x="52.69" y="123.21" width="17.56" height="17.59"/><rect class="cls-1" x="52.69" y="105.67" width="17.56" height="17.56"/><rect class="cls-1" x="52.69" y="88.08" width="17.56" height="17.59"/><rect class="cls-1" x="52.69" y="70.53" width="17.56" height="17.56"/><rect class="cls-1" x="52.69" y="52.71" width="17.56" height="17.83"/><rect class="cls-1" x="52.69" y="35.13" width="17.56" height="17.57"/><rect class="cls-1" x="52.69" y="17.56" width="17.56" height="17.57"/><rect class="cls-1" x="52.69" width="17.56" height="17.57"/><rect class="cls-1" x="35.13" y="123.21" width="17.57" height="17.59"/><rect class="cls-1" x="35.13" y="105.67" width="17.57" height="17.56"/><rect class="cls-1" x="35.13" y="88.08" width="17.57" height="17.59"/><rect class="cls-1" x="35.13" y="70.53" width="17.57" height="17.56"/><rect class="cls-1" x="35.13" y="52.71" width="17.57" height="17.83"/><rect class="cls-1" x="35.13" y="35.13" width="17.57" height="17.57"/><rect class="cls-1" x="35.13" y="17.56" width="17.57" height="17.57"/><rect class="cls-1" x="17.57" y="52.71" width="17.56" height="17.83"/><rect class="cls-1" x="17.57" y="35.13" width="17.56" height="17.57"/><rect class="cls-1" y="52.71" width="17.57" height="17.83"/></g></g></svg>