<svg width="12" height="13" viewBox="0 0 12 13" fill="none" xmlns="http://www.w3.org/2000/svg">
<path d="M12 4.8667H10.29V6.51294H12V4.8667Z" fill="#62B0E5"/>
<path d="M10.2891 4.8667H8.57812V6.51294H10.2891V4.8667Z" fill="#62B0E5"/>
<path d="M10.2891 3.24353H8.57812V4.86576H10.2891V3.24353Z" fill="#62B0E5"/>
<path d="M8.57806 11.3759H6.84082V13H8.57806V11.3759Z" fill="#62B0E5"/>
<path d="M8.57806 9.75647H6.84082V11.3778H8.57806V9.75647Z" fill="#62B0E5"/>
<path d="M8.57806 8.13239H6.84082V9.75646H8.57806V8.13239Z" fill="#62B0E5"/>
<path d="M8.57806 6.51199H6.84082V8.1333H8.57806V6.51199Z" fill="#62B0E5"/>
<path d="M8.57806 4.8667H6.84082V6.51294H8.57806V4.8667Z" fill="#62B0E5"/>
<path d="M8.57806 3.24353H6.84082V4.86576H8.57806V3.24353Z" fill="#62B0E5"/>
<path d="M8.57806 1.62131H6.84082V3.24354H8.57806V1.62131Z" fill="#62B0E5"/>
<path d="M6.84083 11.3759H5.13086V13H6.84083V11.3759Z" fill="#62B0E5"/>
<path d="M6.84083 9.75647H5.13086V11.3778H6.84083V9.75647Z" fill="#62B0E5"/>
<path d="M6.84083 8.13239H5.13086V9.75646H6.84083V8.13239Z" fill="#62B0E5"/>
<path d="M6.84083 6.51199H5.13086V8.1333H6.84083V6.51199Z" fill="#62B0E5"/>
<path d="M6.84083 4.8667H5.13086V6.51294H6.84083V4.8667Z" fill="#62B0E5"/>
<path d="M6.84083 3.24353H5.13086V4.86576H6.84083V3.24353Z" fill="#62B0E5"/>
<path d="M6.84083 1.62131H5.13086V3.24354H6.84083V1.62131Z" fill="#62B0E5"/>
<path d="M6.84083 0H5.13086V1.62223H6.84083V0Z" fill="#62B0E5"/>
<path d="M5.13185 11.3759H3.4209V13H5.13185V11.3759Z" fill="#62B0E5"/>
<path d="M5.13185 9.75647H3.4209V11.3778H5.13185V9.75647Z" fill="#62B0E5"/>
<path d="M5.13185 8.13239H3.4209V9.75646H5.13185V8.13239Z" fill="#62B0E5"/>
<path d="M5.13185 6.51199H3.4209V8.1333H5.13185V6.51199Z" fill="#62B0E5"/>
<path d="M5.13185 4.8667H3.4209V6.51294H5.13185V4.8667Z" fill="#62B0E5"/>
<path d="M5.13185 3.24353H3.4209V4.86576H5.13185V3.24353Z" fill="#62B0E5"/>
<path d="M5.13185 1.62131H3.4209V3.24354H5.13185V1.62131Z" fill="#62B0E5"/>
<path d="M3.42091 4.8667H1.71094V6.51294H3.42091V4.8667Z" fill="#62B0E5"/>
<path d="M3.42091 3.24353H1.71094V4.86576H3.42091V3.24353Z" fill="#62B0E5"/>
<path d="M1.71095 4.8667H0V6.51294H1.71095V4.8667Z" fill="#62B0E5"/>
</svg>
