<svg width="46" height="50" viewBox="0 0 46 50" fill="none" xmlns="http://www.w3.org/2000/svg">
<path d="M-9.53674e-05 31.282L6.55481 31.282L6.55481 24.9503L-9.5921e-05 24.9503L-9.53674e-05 31.282Z" fill="#62B0E5"/>
<path d="M6.55856 31.282L13.1172 31.282L13.1172 24.9503L6.55855 24.9503L6.55856 31.282Z" fill="#62B0E5"/>
<path d="M6.55856 37.5249L13.1172 37.5249L13.1172 31.2856L6.55855 31.2856L6.55856 37.5249Z" fill="#62B0E5"/>
<path d="M13.1172 6.24646L19.7766 6.24646L19.7766 -7.62939e-06L13.1172 -7.04721e-06L13.1172 6.24646Z" fill="#62B0E5"/>
<path d="M13.1172 12.4751L19.7766 12.4751L19.7766 6.23931L13.1172 6.23931L13.1172 12.4751Z" fill="#62B0E5"/>
<path d="M13.1172 18.7216L19.7766 18.7216L19.7766 12.4751L13.1172 12.4751L13.1172 18.7216Z" fill="#62B0E5"/>
<path d="M13.1172 24.9539L19.7766 24.9539L19.7766 18.7181L13.1172 18.7181L13.1172 24.9539Z" fill="#62B0E5"/>
<path d="M13.1172 31.282L19.7766 31.282L19.7766 24.9503L13.1172 24.9503L13.1172 31.282Z" fill="#62B0E5"/>
<path d="M13.1172 37.5249L19.7766 37.5249L19.7766 31.2856L13.1172 31.2856L13.1172 37.5249Z" fill="#62B0E5"/>
<path d="M13.1172 43.7642L19.7766 43.7642L19.7766 37.5248L13.1172 37.5248L13.1172 43.7642Z" fill="#62B0E5"/>
<path d="M19.7766 6.24646L26.3315 6.24646L26.3315 -7.62939e-06L19.7766 -7.05635e-06L19.7766 6.24646Z" fill="#62B0E5"/>
<path d="M19.7766 12.4751L26.3315 12.4751L26.3315 6.23931L19.7766 6.23931L19.7766 12.4751Z" fill="#62B0E5"/>
<path d="M19.7766 18.7216L26.3315 18.7216L26.3315 12.4751L19.7766 12.4751L19.7766 18.7216Z" fill="#62B0E5"/>
<path d="M19.7766 24.9539L26.3315 24.9539L26.3315 18.7181L19.7766 18.7181L19.7766 24.9539Z" fill="#62B0E5"/>
<path d="M19.7766 31.282L26.3315 31.282L26.3315 24.9503L19.7766 24.9503L19.7766 31.282Z" fill="#62B0E5"/>
<path d="M19.7766 37.5249L26.3315 37.5249L26.3315 31.2856L19.7766 31.2856L19.7766 37.5249Z" fill="#62B0E5"/>
<path d="M19.7766 43.7642L26.3315 43.7642L26.3315 37.5248L19.7766 37.5248L19.7766 43.7642Z" fill="#62B0E5"/>
<path d="M19.7766 50L26.3315 50L26.3315 43.7607L19.7766 43.7607L19.7766 50Z" fill="#62B0E5"/>
<path d="M26.328 6.24646L32.8866 6.24646L32.8866 -7.62939e-06L26.328 -7.05602e-06L26.328 6.24646Z" fill="#62B0E5"/>
<path d="M26.328 12.4751L32.8866 12.4751L32.8866 6.23931L26.328 6.23931L26.328 12.4751Z" fill="#62B0E5"/>
<path d="M26.328 18.7216L32.8866 18.7216L32.8866 12.4751L26.328 12.4751L26.328 18.7216Z" fill="#62B0E5"/>
<path d="M26.328 24.9539L32.8866 24.9539L32.8866 18.7181L26.328 18.7181L26.328 24.9539Z" fill="#62B0E5"/>
<path d="M26.328 31.282L32.8866 31.282L32.8866 24.9503L26.328 24.9503L26.328 31.282Z" fill="#62B0E5"/>
<path d="M26.328 37.5249L32.8866 37.5249L32.8866 31.2856L26.328 31.2856L26.328 37.5249Z" fill="#62B0E5"/>
<path d="M26.328 43.7642L32.8866 43.7642L32.8866 37.5248L26.328 37.5248L26.328 43.7642Z" fill="#62B0E5"/>
<path d="M32.8865 31.282L39.4414 31.282L39.4414 24.9503L32.8865 24.9503L32.8865 31.282Z" fill="#62B0E5"/>
<path d="M32.8865 37.5249L39.4414 37.5249L39.4414 31.2856L32.8865 31.2856L32.8865 37.5249Z" fill="#62B0E5"/>
<path d="M39.4414 31.282L46 31.282L46 24.9503L39.4414 24.9503L39.4414 31.282Z" fill="#62B0E5"/>
</svg>
