<svg width="28" height="26" viewBox="0 0 28 26" fill="none" xmlns="http://www.w3.org/2000/svg">
<path d="M10.4819 7.62939e-06L10.4819 3.70496L14.0277 3.70496L14.0277 7.47441e-06L10.4819 7.62939e-06Z" fill="#62B0E5"/>
<path d="M10.4819 3.70701L10.4819 7.41406L14.0277 7.41406L14.0277 3.70701L10.4819 3.70701Z" fill="#62B0E5"/>
<path d="M6.98584 3.70701L6.98584 7.41406L10.4799 7.41406L10.4799 3.70701L6.98584 3.70701Z" fill="#62B0E5"/>
<path d="M24.502 7.41408L24.502 11.1781L28 11.1781L28 7.41408L24.502 7.41408Z" fill="#62B0E5"/>
<path d="M21.0142 7.41408L21.0142 11.1781L24.5062 11.1781L24.5062 7.41408L21.0142 7.41408Z" fill="#62B0E5"/>
<path d="M17.5161 7.41408L17.5161 11.1781L21.0141 11.1781L21.0141 7.41408L17.5161 7.41408Z" fill="#62B0E5"/>
<path d="M14.0259 7.41408L14.0259 11.1781L17.5179 11.1781L17.5179 7.41408L14.0259 7.41408Z" fill="#62B0E5"/>
<path d="M10.4819 7.41408L10.4819 11.1781L14.0277 11.1781L14.0277 7.41408L10.4819 7.41408Z" fill="#62B0E5"/>
<path d="M6.98584 7.41408L6.98584 11.1781L10.4799 11.1781L10.4799 7.41408L6.98584 7.41408Z" fill="#62B0E5"/>
<path d="M3.49219 7.41408L3.49219 11.1781L6.98622 11.1781L6.98622 7.41408L3.49219 7.41408Z" fill="#62B0E5"/>
<path d="M24.502 11.1781L24.502 14.8831L28 14.8831L28 11.1781L24.502 11.1781Z" fill="#62B0E5"/>
<path d="M21.0142 11.1781L21.0142 14.8831L24.5062 14.8831L24.5062 11.1781L21.0142 11.1781Z" fill="#62B0E5"/>
<path d="M17.5161 11.1781L17.5161 14.8831L21.0141 14.8831L21.0141 11.1781L17.5161 11.1781Z" fill="#62B0E5"/>
<path d="M14.0259 11.1781L14.0259 14.8831L17.5179 14.8831L17.5179 11.1781L14.0259 11.1781Z" fill="#62B0E5"/>
<path d="M10.4819 11.1781L10.4819 14.8831L14.0277 14.8831L14.0277 11.1781L10.4819 11.1781Z" fill="#62B0E5"/>
<path d="M6.98584 11.1781L6.98584 14.8831L10.4799 14.8831L10.4799 11.1781L6.98584 11.1781Z" fill="#62B0E5"/>
<path d="M3.49219 11.1781L3.49219 14.8831L6.98622 14.8831L6.98622 11.1781L3.49219 11.1781Z" fill="#62B0E5"/>
<path d="M-1.61948e-07 11.1781L0 14.8831L3.49403 14.8831L3.49403 11.1781L-1.61948e-07 11.1781Z" fill="#62B0E5"/>
<path d="M24.502 14.881L24.502 18.588L28 18.588L28 14.881L24.502 14.881Z" fill="#62B0E5"/>
<path d="M21.0142 14.881L21.0142 18.588L24.5062 18.588L24.5062 14.881L21.0142 14.881Z" fill="#62B0E5"/>
<path d="M17.5161 14.881L17.5161 18.588L21.0141 18.588L21.0141 14.881L17.5161 14.881Z" fill="#62B0E5"/>
<path d="M14.0259 14.881L14.0259 18.588L17.5179 18.588L17.5179 14.881L14.0259 14.881Z" fill="#62B0E5"/>
<path d="M10.4819 14.881L10.4819 18.588L14.0277 18.588L14.0277 14.881L10.4819 14.881Z" fill="#62B0E5"/>
<path d="M6.98584 14.881L6.98584 18.588L10.4799 18.588L10.4799 14.881L6.98584 14.881Z" fill="#62B0E5"/>
<path d="M3.49219 14.881L3.49219 18.588L6.98622 18.588L6.98622 14.881L3.49219 14.881Z" fill="#62B0E5"/>
<path d="M10.4819 18.588L10.4819 22.293L14.0277 22.293L14.0277 18.588L10.4819 18.588Z" fill="#62B0E5"/>
<path d="M6.98584 18.588L6.98584 22.293L10.4799 22.293L10.4799 18.588L6.98584 18.588Z" fill="#62B0E5"/>
<path d="M10.4819 22.2929L10.4819 26L14.0277 26L14.0277 22.2929L10.4819 22.2929Z" fill="#62B0E5"/>
</svg>
