<svg width="38" height="13" viewBox="0 0 38 13" fill="none" xmlns="http://www.w3.org/2000/svg">
<path d="M3.10435e-08 2.59883L0 5.20209L2.70724 5.20209L2.70724 2.59883L3.10435e-08 2.59883Z" fill="#62B0E5"/>
<path d="M3.09906e-08 5.20209L0 7.8009L2.70724 7.8009L2.70724 5.20209L3.09906e-08 5.20209Z" fill="#62B0E5"/>
<path d="M3.10082e-08 7.80089L0 10.4012L2.70724 10.4012L2.70724 7.80089L3.10082e-08 7.80089Z" fill="#62B0E5"/>
<path d="M2.70703 -9.53674e-07L2.70703 2.59882L5.41889 2.59882L5.41889 -9.21336e-07L2.70703 -9.53674e-07Z" fill="#62B0E5"/>
<path d="M2.70703 10.4012L2.70703 13L5.41889 13L5.41889 10.4012L2.70703 10.4012Z" fill="#62B0E5"/>
<path d="M5.41602 0L5.41602 2.59882L8.1248 2.59882L8.1248 3.23019e-08L5.41602 0Z" fill="#62B0E5"/>
<path d="M5.41602 10.4012L5.41602 13L8.1248 13L8.1248 10.4012L5.41602 10.4012Z" fill="#62B0E5"/>
<path d="M8.12646 0L8.12646 2.59882L10.8352 2.59882L10.8352 3.23019e-08L8.12646 0Z" fill="#62B0E5"/>
<path d="M8.12646 10.4012L8.12646 13L10.8352 13L10.8352 10.4012L8.12646 10.4012Z" fill="#62B0E5"/>
<path d="M10.835 -1.90735e-06L10.835 2.59882L13.5437 2.59882L13.5437 -1.87505e-06L10.835 -1.90735e-06Z" fill="#62B0E5"/>
<path d="M10.835 5.20209L10.835 7.8009L13.5437 7.8009L13.5437 5.20209L10.835 5.20209Z" fill="#62B0E5"/>
<path d="M10.835 10.4012L10.835 13L13.5437 13L13.5437 10.4012L10.835 10.4012Z" fill="#62B0E5"/>
<path d="M13.5425 2.59883L13.5425 5.20209L16.2513 5.20209L16.2513 2.59883L13.5425 2.59883Z" fill="#62B0E5"/>
<path d="M13.5425 5.20209L13.5425 7.8009L16.2513 7.8009L16.2513 5.20209L13.5425 5.20209Z" fill="#62B0E5"/>
<path d="M13.5425 7.80089L13.5425 10.4012L16.2513 10.4012L16.2513 7.80089L13.5425 7.80089Z" fill="#62B0E5"/>
<path d="M16.251 5.20209L16.251 7.8009L18.9998 7.8009L18.9998 5.20209L16.251 5.20209Z" fill="#62B0E5"/>
<path d="M19 5.20209L19 7.8009L21.7088 7.8009L21.7088 5.20209L19 5.20209Z" fill="#62B0E5"/>
<path d="M21.707 2.59883L21.707 5.20209L24.4189 5.20209L24.4189 2.59883L21.707 2.59883Z" fill="#62B0E5"/>
<path d="M21.707 5.20209L21.707 7.8009L24.4189 7.8009L24.4189 5.20209L21.707 5.20209Z" fill="#62B0E5"/>
<path d="M21.707 7.80089L21.707 10.4012L24.4189 10.4012L24.4189 7.80089L21.707 7.80089Z" fill="#62B0E5"/>
<path d="M24.4189 -9.53674e-07L24.4189 2.59882L27.1262 2.59882L27.1262 -9.21391e-07L24.4189 -9.53674e-07Z" fill="#62B0E5"/>
<path d="M24.4189 5.20209L24.4189 7.8009L27.1262 7.8009L27.1262 5.20209L24.4189 5.20209Z" fill="#62B0E5"/>
<path d="M24.4189 10.4012L24.4189 13L27.1262 13L27.1262 10.4012L24.4189 10.4012Z" fill="#62B0E5"/>
<path d="M27.123 0L27.123 2.59882L29.8318 2.59882L29.8318 3.23019e-08L27.123 0Z" fill="#62B0E5"/>
<path d="M27.123 10.4012L27.123 13L29.8318 13L29.8318 10.4012L27.123 10.4012Z" fill="#62B0E5"/>
<path d="M29.832 9.53674e-07L29.832 2.59882L32.5408 2.59882L32.5408 9.85976e-07L29.832 9.53674e-07Z" fill="#62B0E5"/>
<path d="M29.832 10.4012L29.832 13L32.5408 13L32.5408 10.4012L29.832 10.4012Z" fill="#62B0E5"/>
<path d="M32.5391 -9.53674e-07L32.5391 2.59882L35.2463 2.59882L35.2463 -9.21391e-07L32.5391 -9.53674e-07Z" fill="#62B0E5"/>
<path d="M32.5391 10.4012L32.5391 13L35.2463 13L35.2463 10.4012L32.5391 10.4012Z" fill="#62B0E5"/>
<path d="M35.2466 2.59883L35.2466 5.20209L38.0001 5.20209L38.0001 2.59883L35.2466 2.59883Z" fill="#62B0E5"/>
<path d="M35.2466 5.20209L35.2466 7.8009L38.0001 7.8009L38.0001 5.20209L35.2466 5.20209Z" fill="#62B0E5"/>
<path d="M35.2466 7.80089L35.2466 10.4012L38.0001 10.4012L38.0001 7.80089L35.2466 7.80089Z" fill="#62B0E5"/>
</svg>
