<svg width="27" height="27" viewBox="0 0 27 27" fill="none" xmlns="http://www.w3.org/2000/svg">
<path d="M23.9667 5.98845V8.98523V8.98693V11.9786V14.9737H20.9777H17.9869H16.5129H14.9979H12.0038V11.9786V8.98693V8.98523V5.98845V2.99848H14.9979H17.9869H20.9777V5.98845H23.9667V2.99508H20.9777V0H17.9869H14.9979H12.0038H9.01475H6.02232V2.99508H2.98903V5.98845V6.01231H2.98563V5.98845H0V6.01231V8.98693V11.9786V11.9803V14.9737V18.0148V20.9843V21.0081H2.98563V20.9843H2.98903V21.0081V21.0098V23.9981H6.02232V24.0015V27H9.01475H12.0038H14.9945H17.9835H17.9869H20.9777V24.0015V23.9981H23.9667V21.0098H27V18.0148V14.9737V11.9786V8.98693V8.98523V5.98845H23.9667Z" fill="url(#paint0_linear)"/>
<defs>
<linearGradient id="paint0_linear" x1="27" y1="13.5001" x2="4.80626e-09" y2="13.5001" gradientUnits="userSpaceOnUse">
<stop stop-color="#7AC2E8"/>
<stop offset="1" stop-color="#236EDC"/>
</linearGradient>
</defs>
</svg>
