<svg xmlns="http://www.w3.org/2000/svg" viewBox="0 0 175.93 123.22"><defs><style>.cls-1{fill: #62B0E5;}</style></defs><g id="Layer_2" data-name="Layer 2"><g id="Layer_1-2" data-name="Layer 1"><rect class="cls-1" x="158.37" width="17.56" height="17.56"/><rect class="cls-1" x="140.78" width="17.59" height="17.56"/><rect class="cls-1" x="123.24" y="105.4" width="17.56" height="17.83"/><rect class="cls-1" x="123.24" y="87.82" width="17.56" height="17.57"/><rect class="cls-1" x="123.24" y="52.69" width="17.56" height="17.56"/><rect class="cls-1" x="123.24" y="17.56" width="17.56" height="17.56"/><rect class="cls-1" x="105.67" y="87.82" width="17.57" height="17.57"/><rect class="cls-1" x="105.67" y="52.69" width="17.57" height="17.56"/><rect class="cls-1" x="105.67" y="17.56" width="17.57" height="17.56"/><rect class="cls-1" x="87.84" y="87.82" width="17.83" height="17.57"/><rect class="cls-1" x="87.84" y="52.69" width="17.83" height="17.56"/><rect class="cls-1" x="87.84" y="17.56" width="17.83" height="17.56"/><rect class="cls-1" x="70.28" y="87.82" width="17.56" height="17.57"/><rect class="cls-1" x="70.28" y="52.69" width="17.56" height="17.56"/><rect class="cls-1" x="70.28" y="17.56" width="17.56" height="17.56"/><rect class="cls-1" x="52.69" y="87.82" width="17.57" height="17.57"/><rect class="cls-1" x="52.69" y="52.69" width="17.57" height="17.56"/><rect class="cls-1" x="52.69" y="17.56" width="17.57" height="17.56"/><rect class="cls-1" x="35.13" y="105.4" width="17.56" height="17.83"/><rect class="cls-1" x="35.13" y="52.69" width="17.56" height="17.56"/><rect class="cls-1" x="35.13" y="17.56" width="17.56" height="17.56"/><rect class="cls-1" x="17.56" y="52.69" width="17.57" height="17.56"/><rect class="cls-1" x="17.56" y="17.56" width="17.57" height="17.56"/><rect class="cls-1" y="17.57" width="17.56" height="17.54"/></g></g></svg>