<svg xmlns="http://www.w3.org/2000/svg" viewBox="0 0 123.24 158.62"><defs><style>.cls-1{fill:#070c28;}</style></defs><g id="Layer_2" data-name="Layer 2"><g id="Layer_1-2" data-name="Layer 1"><rect class="cls-1" x="105.68" y="123.22" width="17.56" height="17.83"/><rect class="cls-1" x="105.68" y="105.65" width="17.56" height="17.57"/><rect class="cls-1" x="105.68" y="88.08" width="17.56" height="17.57"/><rect class="cls-1" x="105.68" y="70.52" width="17.56" height="17.57"/><rect class="cls-1" x="105.68" y="52.94" width="17.56" height="17.57"/><rect class="cls-1" x="88.11" y="141.05" width="17.57" height="17.57"/><rect class="cls-1" x="88.11" y="35.38" width="17.57" height="17.57"/><rect class="cls-1" x="70.55" y="141.05" width="17.56" height="17.57"/><rect class="cls-1" x="70.55" y="35.38" width="17.56" height="17.57"/><rect class="cls-1" x="70.55" y="17.81" width="17.56" height="17.57"/><rect class="cls-1" x="52.96" y="141.05" width="17.57" height="17.57"/><rect class="cls-1" x="52.96" width="17.57" height="17.83"/><rect class="cls-1" x="35.38" y="141.05" width="17.57" height="17.57"/><rect class="cls-1" x="35.4" width="17.56" height="17.83"/><rect class="cls-1" x="17.57" y="141.05" width="17.83" height="17.57"/><rect class="cls-1" x="17.57" width="17.81" height="17.83"/><rect class="cls-1" y="123.22" width="17.57" height="17.83"/><rect class="cls-1" y="105.65" width="17.57" height="17.57"/><rect class="cls-1" y="88.08" width="17.57" height="17.57"/><rect class="cls-1" y="70.52" width="17.57" height="17.57"/><rect class="cls-1" y="52.94" width="17.57" height="17.57"/><rect class="cls-1" y="35.38" width="17.57" height="17.57"/><rect class="cls-1" y="17.81" width="17.57" height="17.57"/></g></g></svg>