<svg width="24" height="24" viewBox="0 0 24 24" fill="none" xmlns="http://www.w3.org/2000/svg">
<path d="M13.5 11.25V10.5H12.75V9.75H11.25V10.5H10.5V11.25H9.75V12.75H10.5V13.5H11.25V14.25H12.75V13.5H13.5V12.75H14.25V11.25H13.5Z" fill="#62B0E5"/>
<path fill-rule="evenodd" clip-rule="evenodd" d="M9.75 0H14.25V3.75H16.5V3H17.25V2.25H18V1.5H19.5V2.25H20.25V3H21V3.75H21.75V4.5H22.5V6H21.75V6.75H21V7.5H20.25V9.75H24V14.25H20.25V16.5H21V17.25H21.75V18H22.5V19.5H21.75V20.25H21V21H20.25V21.75H19.5V22.5H18V21.75H17.25V21H16.5V20.25H14.25V24H9.75V20.25H7.5V21H6.75V21.75H6V22.5H4.5V21.75H3.75V21H3V20.25H2.25V19.5H1.5L1.5 18H2.25V17.25H3V16.5H3.75V14.25L0 14.25V9.75H3.75V7.5H3V6.75H2.25V6H1.5V4.5H2.25V3.75H3V3H3.75V2.25H4.5V1.5H6V2.25H6.75V3H7.5V3.75H9.75V0ZM6.75 13.5H8.25V15.7302L8.26982 15.75H10.5V17.25H13.5V15.75H15.7302L15.75 15.7302V13.5H17.25V10.5H15.75V8.26982L15.7302 8.25H13.5V6.75H10.5V8.25H8.26982L8.25 8.26982V10.5H6.75V13.5Z" fill="#62B0E5"/>
</svg>
