<svg xmlns="http://www.w3.org/2000/svg" viewBox="0 0 491.35 491.35"><defs><style>.cls-1{fill:none;stroke:#fff;stroke-miterlimit:10;stroke-width:0.25px;}</style></defs><g id="Layer_2" data-name="Layer 2"><g id="Layer_1-2" data-name="Layer 1"><rect class="cls-1" x="0.13" y="0.13" width="98.22" height="98.22"/><rect class="cls-1" x="98.35" y="0.13" width="98.22" height="98.22"/><rect class="cls-1" x="196.57" y="0.13" width="98.22" height="98.22"/><rect class="cls-1" x="294.79" y="0.13" width="98.22" height="98.22"/><rect class="cls-1" x="393.01" y="0.13" width="98.22" height="98.22"/><rect class="cls-1" x="0.13" y="98.35" width="98.22" height="98.22"/><rect class="cls-1" x="98.35" y="98.35" width="98.22" height="98.22"/><rect class="cls-1" x="196.57" y="98.35" width="98.22" height="98.22"/><rect class="cls-1" x="294.79" y="98.35" width="98.22" height="98.22"/><rect class="cls-1" x="393.01" y="98.35" width="98.22" height="98.22"/><rect class="cls-1" x="0.13" y="196.57" width="98.22" height="98.22"/><rect class="cls-1" x="98.35" y="196.57" width="98.22" height="98.22"/><rect class="cls-1" x="196.57" y="196.57" width="98.22" height="98.22"/><rect class="cls-1" x="294.79" y="196.57" width="98.22" height="98.22"/><rect class="cls-1" x="393.01" y="196.57" width="98.22" height="98.22"/><rect class="cls-1" x="0.13" y="294.79" width="98.22" height="98.22"/><rect class="cls-1" x="98.35" y="294.79" width="98.22" height="98.22"/><rect class="cls-1" x="196.57" y="294.79" width="98.22" height="98.22"/><rect class="cls-1" x="294.79" y="294.79" width="98.22" height="98.22"/><rect class="cls-1" x="393.01" y="294.79" width="98.22" height="98.22"/><rect class="cls-1" x="0.13" y="393.01" width="98.22" height="98.22"/><rect class="cls-1" x="98.35" y="393.01" width="98.22" height="98.22"/><rect class="cls-1" x="196.57" y="393.01" width="98.22" height="98.22"/><rect class="cls-1" x="294.79" y="393.01" width="98.22" height="98.22"/><rect class="cls-1" x="393.01" y="393.01" width="98.22" height="98.22"/></g></g></svg>