<svg xmlns="http://www.w3.org/2000/svg" viewBox="0 0 140.8 123.24"><defs><style>.cls-1{fill:#e5e5e5;}</style></defs><g id="Layer_2" data-name="Layer 2"><g id="Layer_1-2" data-name="Layer 1"><rect class="cls-1" x="123.24" y="52.71" width="17.56" height="17.57"/><rect class="cls-1" x="123.24" y="35.15" width="17.56" height="17.57"/><rect class="cls-1" x="123.24" y="17.56" width="17.56" height="17.59"/><rect class="cls-1" x="105.67" y="70.28" width="17.57" height="17.57"/><rect class="cls-1" x="105.67" y="52.71" width="17.57" height="17.57"/><rect class="cls-1" x="105.67" y="35.15" width="17.57" height="17.57"/><rect class="cls-1" x="105.67" y="17.56" width="17.57" height="17.59"/><rect class="cls-1" x="105.67" width="17.57" height="17.56"/><rect class="cls-1" x="87.84" y="70.28" width="17.83" height="17.57"/><rect class="cls-1" x="87.84" y="52.71" width="17.83" height="17.57"/><rect class="cls-1" x="87.84" y="35.15" width="17.83" height="17.57"/><rect class="cls-1" x="87.84" y="17.56" width="17.83" height="17.59"/><rect class="cls-1" x="87.84" width="17.83" height="17.56"/><rect class="cls-1" x="70.28" y="70.28" width="17.56" height="17.57"/><rect class="cls-1" x="70.28" y="52.71" width="17.56" height="17.57"/><rect class="cls-1" x="70.28" y="35.15" width="17.56" height="17.57"/><rect class="cls-1" x="70.28" y="17.56" width="17.56" height="17.59"/><rect class="cls-1" x="70.28" width="17.56" height="17.56"/><rect class="cls-1" x="52.71" y="87.85" width="17.57" height="17.81"/><rect class="cls-1" x="52.71" y="70.28" width="17.57" height="17.57"/><rect class="cls-1" x="52.71" y="52.71" width="17.57" height="17.57"/><rect class="cls-1" x="52.71" y="35.15" width="17.57" height="17.57"/><rect class="cls-1" x="52.71" y="17.56" width="17.57" height="17.59"/><rect class="cls-1" x="52.71" width="17.57" height="17.56"/><rect class="cls-1" x="35.15" y="105.65" width="17.56" height="17.59"/><rect class="cls-1" x="35.15" y="87.85" width="17.56" height="17.81"/><rect class="cls-1" x="35.15" y="70.28" width="17.56" height="17.57"/><rect class="cls-1" x="35.15" y="52.71" width="17.56" height="17.57"/><rect class="cls-1" x="35.15" y="35.15" width="17.56" height="17.57"/><rect class="cls-1" x="35.15" y="17.56" width="17.56" height="17.59"/><rect class="cls-1" x="35.15" width="17.56" height="17.56"/><rect class="cls-1" x="17.57" y="70.28" width="17.57" height="17.57"/><rect class="cls-1" x="17.57" y="52.71" width="17.57" height="17.57"/><rect class="cls-1" x="17.57" y="35.15" width="17.57" height="17.57"/><rect class="cls-1" x="17.57" y="17.56" width="17.57" height="17.59"/><rect class="cls-1" x="17.57" width="17.57" height="17.56"/><rect class="cls-1" y="52.71" width="17.57" height="17.57"/><rect class="cls-1" y="35.15" width="17.57" height="17.57"/><rect class="cls-1" y="17.56" width="17.57" height="17.59"/></g></g></svg>