<svg xmlns="http://www.w3.org/2000/svg" viewBox="0 0 158.62 158.39"><defs><style>.cls-1{fill:#070c28;}</style></defs><g id="Layer_2" data-name="Layer 2"><g id="Layer_1-2" data-name="Layer 1"><polygon class="cls-1" points="140.8 35.13 140.8 52.71 140.8 52.72 140.8 70.27 140.8 87.84 140.8 87.84 123.24 87.84 105.67 87.84 97.01 87.84 88.11 87.84 70.52 87.84 70.52 70.27 70.52 52.72 70.52 52.71 70.52 35.13 70.52 17.59 88.11 17.59 105.67 17.59 123.24 17.59 123.24 35.13 140.8 35.13 140.8 17.57 123.24 17.57 123.24 0 105.67 0 88.11 0 70.52 0 52.96 0 35.38 0 35.38 17.57 17.56 17.57 17.56 35.13 17.56 35.27 17.54 35.27 17.54 35.13 0 35.13 0 35.27 0 52.72 0 70.27 0 70.28 0 87.84 0 105.68 0 123.1 0 123.24 17.54 123.24 17.54 123.1 17.56 123.1 17.56 123.24 17.56 123.25 17.56 140.78 35.38 140.78 35.38 140.8 35.38 158.39 52.96 158.39 70.52 158.39 88.09 158.39 105.65 158.39 105.67 158.39 123.24 158.39 123.24 140.8 123.24 140.78 140.8 140.78 140.8 123.25 140.8 123.25 158.62 123.25 158.62 105.68 158.62 87.84 158.62 70.27 158.62 52.72 158.62 52.71 158.62 35.13 140.8 35.13"/></g></g></svg>