<svg xmlns="http://www.w3.org/2000/svg" viewBox="0 0 87.84 246.48"><defs><style>.cls-1{fill:#070c28;}</style></defs><g id="Layer_2" data-name="Layer 2"><g id="Layer_1-2" data-name="Layer 1"><rect class="cls-1" x="52.69" width="17.59" height="17.56"/><rect class="cls-1" x="35.13" width="17.56" height="17.56"/><rect class="cls-1" x="17.56" width="17.57" height="17.56"/><rect class="cls-1" x="70.28" y="17.56" width="17.56" height="17.59"/><rect class="cls-1" y="17.56" width="17.56" height="17.59"/><rect class="cls-1" x="70.28" y="35.13" width="17.56" height="17.57"/><rect class="cls-1" y="35.13" width="17.56" height="17.57"/><rect class="cls-1" x="70.28" y="52.71" width="17.56" height="17.57"/><rect class="cls-1" y="52.71" width="17.56" height="17.57"/><rect class="cls-1" x="70.28" y="70.28" width="17.56" height="17.57"/><rect class="cls-1" x="35.13" y="70.28" width="17.56" height="17.57"/><rect class="cls-1" y="70.28" width="17.56" height="17.57"/><rect class="cls-1" x="52.69" y="87.84" width="17.59" height="17.57"/><rect class="cls-1" x="35.13" y="87.84" width="17.56" height="17.57"/><rect class="cls-1" x="17.56" y="87.84" width="17.57" height="17.57"/><rect class="cls-1" x="35.13" y="105.41" width="17.56" height="17.83"/><rect class="cls-1" x="35.13" y="123.24" width="17.56" height="17.57"/><rect class="cls-1" x="52.69" y="140.8" width="17.59" height="17.59"/><rect class="cls-1" x="35.13" y="140.8" width="17.56" height="17.59"/><rect class="cls-1" x="17.56" y="140.8" width="17.57" height="17.59"/><rect class="cls-1" x="70.28" y="158.39" width="17.56" height="17.56"/><rect class="cls-1" x="35.13" y="158.39" width="17.56" height="17.56"/><rect class="cls-1" y="158.39" width="17.56" height="17.56"/><rect class="cls-1" x="70.28" y="175.93" width="17.56" height="17.57"/><rect class="cls-1" y="175.93" width="17.56" height="17.57"/><rect class="cls-1" x="70.28" y="193.5" width="17.56" height="17.57"/><rect class="cls-1" y="193.5" width="17.56" height="17.57"/><rect class="cls-1" x="70.28" y="211.06" width="17.56" height="17.56"/><rect class="cls-1" y="211.06" width="17.56" height="17.56"/><rect class="cls-1" x="52.69" y="228.62" width="17.59" height="17.86"/><rect class="cls-1" x="35.13" y="228.62" width="17.56" height="17.86"/><rect class="cls-1" x="17.56" y="228.62" width="17.57" height="17.86"/></g></g></svg>