<svg width="13" height="37" viewBox="0 0 13 37" fill="none" xmlns="http://www.w3.org/2000/svg">
<path d="M2.59877 37L5.20203 37L5.20203 34.364L2.59877 34.364L2.59877 37Z" fill="#62B0E5"/>
<path d="M5.20209 37L7.8009 37L7.8009 34.364L5.20209 34.364L5.20209 37Z" fill="#62B0E5"/>
<path d="M7.80083 37L10.4011 37L10.4011 34.364L7.80083 34.364L7.80083 37Z" fill="#62B0E5"/>
<path d="M5.91278e-05 34.364L2.59888 34.364L2.59888 31.7235L5.93586e-05 31.7235L5.91278e-05 34.364Z" fill="#62B0E5"/>
<path d="M10.4012 34.364L13 34.364L13 31.7235L10.4012 31.7235L10.4012 34.364Z" fill="#62B0E5"/>
<path d="M6.10352e-05 31.7265L2.59888 31.7265L2.59888 29.089L6.12657e-05 29.089L6.10352e-05 31.7265Z" fill="#62B0E5"/>
<path d="M10.4012 31.7265L13 31.7265L13 29.089L10.4012 29.089L10.4012 31.7265Z" fill="#62B0E5"/>
<path d="M6.10352e-05 29.0875L2.59888 29.0875L2.59888 26.45L6.12657e-05 26.45L6.10352e-05 29.0875Z" fill="#62B0E5"/>
<path d="M10.4012 29.0875L13 29.0875L13 26.45L10.4012 26.45L10.4012 29.0875Z" fill="#62B0E5"/>
<path d="M5.91278e-05 26.45L2.59888 26.45L2.59888 23.8125L5.93584e-05 23.8125L5.91278e-05 26.45Z" fill="#62B0E5"/>
<path d="M5.20209 26.45L7.8009 26.45L7.8009 23.8125L5.20209 23.8125L5.20209 26.45Z" fill="#62B0E5"/>
<path d="M10.4012 26.45L13 26.45L13 23.8125L10.4012 23.8125L10.4012 26.45Z" fill="#62B0E5"/>
<path d="M2.59877 23.814L5.20203 23.814L5.20203 21.1765L2.59877 21.1765L2.59877 23.814Z" fill="#62B0E5"/>
<path d="M5.20209 23.814L7.8009 23.814L7.8009 21.1765L5.20209 21.1765L5.20209 23.814Z" fill="#62B0E5"/>
<path d="M7.80083 23.814L10.4011 23.814L10.4011 21.1765L7.80083 21.1765L7.80083 23.814Z" fill="#62B0E5"/>
<path d="M5.20209 21.1765L7.8009 21.1765L7.8009 18.5L5.20209 18.5L5.20209 21.1765Z" fill="#62B0E5"/>
<path d="M5.20209 18.5L7.8009 18.5L7.8009 15.8625L5.20209 15.8625L5.20209 18.5Z" fill="#62B0E5"/>
<path d="M2.59877 15.864L5.20203 15.864L5.20203 13.2235L2.59877 13.2235L2.59877 15.864Z" fill="#62B0E5"/>
<path d="M5.20209 15.864L7.8009 15.864L7.8009 13.2235L5.20209 13.2235L5.20209 15.864Z" fill="#62B0E5"/>
<path d="M7.80083 15.864L10.4011 15.864L10.4011 13.2235L7.80083 13.2235L7.80083 15.864Z" fill="#62B0E5"/>
<path d="M5.91278e-05 13.2235L2.59888 13.2235L2.59888 10.5875L5.93583e-05 10.5875L5.91278e-05 13.2235Z" fill="#62B0E5"/>
<path d="M5.20209 13.2235L7.8009 13.2235L7.8009 10.5875L5.20209 10.5875L5.20209 13.2235Z" fill="#62B0E5"/>
<path d="M10.4012 13.2235L13 13.2235L13 10.5875L10.4012 10.5875L10.4012 13.2235Z" fill="#62B0E5"/>
<path d="M6.00815e-05 10.5905L2.59888 10.5905L2.59888 7.95303L6.03121e-05 7.95303L6.00815e-05 10.5905Z" fill="#62B0E5"/>
<path d="M10.4012 10.5905L13 10.5905L13 7.95301L10.4012 7.95301L10.4012 10.5905Z" fill="#62B0E5"/>
<path d="M6.10352e-05 7.95301L2.59888 7.95301L2.59888 5.31552L6.12657e-05 5.31552L6.10352e-05 7.95301Z" fill="#62B0E5"/>
<path d="M10.4012 7.95301L13 7.95301L13 5.31552L10.4012 5.31552L10.4012 7.95301Z" fill="#62B0E5"/>
<path d="M5.91278e-05 5.31702L2.59888 5.31702L2.59888 2.68102L5.93583e-05 2.68102L5.91278e-05 5.31702Z" fill="#62B0E5"/>
<path d="M10.4012 5.31702L13 5.31702L13 2.68102L10.4012 2.68102L10.4012 5.31702Z" fill="#62B0E5"/>
<path d="M2.59877 2.68102L5.20203 2.68102L5.20203 0L2.59877 -2.27584e-07L2.59877 2.68102Z" fill="#62B0E5"/>
<path d="M5.20209 2.68102L7.8009 2.68102L7.8009 0L5.20209 -2.27196e-07L5.20209 2.68102Z" fill="#62B0E5"/>
<path d="M7.80083 2.68102L10.4011 2.68102L10.4011 -3.8147e-06L7.80083 -4.04202e-06L7.80083 2.68102Z" fill="#62B0E5"/>
</svg>
