<svg width="21" height="23" viewBox="0 0 21 23" fill="none" xmlns="http://www.w3.org/2000/svg">
<path d="M-2.47955e-05 14.3897L2.99243 14.3897L2.99243 11.4772L-2.50502e-05 11.4772L-2.47955e-05 14.3897Z" fill="#62B0E5"/>
<path d="M2.99413 14.3897L5.98828 14.3897L5.98828 11.4772L2.99413 11.4772L2.99413 14.3897Z" fill="#62B0E5"/>
<path d="M2.99412 17.2615L5.98828 17.2615L5.98828 14.3914L2.99412 14.3914L2.99412 17.2615Z" fill="#62B0E5"/>
<path d="M5.9884 2.87341L9.02856 2.87341L9.02856 4.19617e-05L5.9884 4.22274e-05L5.9884 2.87341Z" fill="#62B0E5"/>
<path d="M5.9884 5.73859L9.02856 5.73859L9.02856 2.87012L5.9884 2.87012L5.9884 5.73859Z" fill="#62B0E5"/>
<path d="M5.9884 8.61197L9.02856 8.61197L9.02856 5.73861L5.9884 5.73861L5.9884 8.61197Z" fill="#62B0E5"/>
<path d="M5.9884 11.4788L9.02856 11.4788L9.02856 8.61036L5.9884 8.61036L5.9884 11.4788Z" fill="#62B0E5"/>
<path d="M5.9884 14.3897L9.02856 14.3897L9.02856 11.4772L5.9884 11.4772L5.9884 14.3897Z" fill="#62B0E5"/>
<path d="M5.9884 17.2615L9.02856 17.2615L9.02856 14.3914L5.9884 14.3914L5.9884 17.2615Z" fill="#62B0E5"/>
<path d="M5.9884 20.1316L9.02856 20.1316L9.02856 17.2615L5.9884 17.2615L5.9884 20.1316Z" fill="#62B0E5"/>
<path d="M9.02854 2.87341L12.021 2.87341L12.021 4.00543e-05L9.02854 4.03159e-05L9.02854 2.87341Z" fill="#62B0E5"/>
<path d="M9.02854 5.73859L12.021 5.73859L12.021 2.87012L9.02854 2.87012L9.02854 5.73859Z" fill="#62B0E5"/>
<path d="M9.02854 8.61197L12.021 8.61197L12.021 5.73861L9.02854 5.73861L9.02854 8.61197Z" fill="#62B0E5"/>
<path d="M9.02854 11.4788L12.021 11.4788L12.021 8.61036L9.02854 8.61036L9.02854 11.4788Z" fill="#62B0E5"/>
<path d="M9.02854 14.3897L12.021 14.3897L12.021 11.4771L9.02854 11.4771L9.02854 14.3897Z" fill="#62B0E5"/>
<path d="M9.02854 17.2615L12.021 17.2615L12.021 14.3914L9.02854 14.3914L9.02854 17.2615Z" fill="#62B0E5"/>
<path d="M9.02854 20.1316L12.021 20.1316L12.021 17.2615L9.02854 17.2615L9.02854 20.1316Z" fill="#62B0E5"/>
<path d="M9.02854 23L12.021 23L12.021 20.1299L9.02854 20.1299L9.02854 23Z" fill="#62B0E5"/>
<path d="M12.0193 2.87341L15.0134 2.87341L15.0134 4.00543e-05L12.0193 4.03161e-05L12.0193 2.87341Z" fill="#62B0E5"/>
<path d="M12.0193 5.73859L15.0134 5.73859L15.0134 2.87012L12.0193 2.87013L12.0193 5.73859Z" fill="#62B0E5"/>
<path d="M12.0193 8.61197L15.0134 8.61197L15.0134 5.73861L12.0193 5.73861L12.0193 8.61197Z" fill="#62B0E5"/>
<path d="M12.0193 11.4788L15.0134 11.4788L15.0134 8.61036L12.0193 8.61036L12.0193 11.4788Z" fill="#62B0E5"/>
<path d="M12.0193 14.3897L15.0134 14.3897L15.0134 11.4771L12.0193 11.4771L12.0193 14.3897Z" fill="#62B0E5"/>
<path d="M12.0193 17.2615L15.0134 17.2615L15.0134 14.3914L12.0193 14.3914L12.0193 17.2615Z" fill="#62B0E5"/>
<path d="M12.0193 20.1316L15.0134 20.1316L15.0134 17.2615L12.0193 17.2615L12.0193 20.1316Z" fill="#62B0E5"/>
<path d="M15.0134 14.3897L18.0059 14.3897L18.0059 11.4771L15.0134 11.4771L15.0134 14.3897Z" fill="#62B0E5"/>
<path d="M15.0134 17.2615L18.0059 17.2615L18.0059 14.3914L15.0134 14.3914L15.0134 17.2615Z" fill="#62B0E5"/>
<path d="M18.0058 14.3897L21 14.3897L21 11.4771L18.0058 11.4771L18.0058 14.3897Z" fill="#62B0E5"/>
</svg>
