<svg width="21" height="23" viewBox="0 0 21 23" fill="none" xmlns="http://www.w3.org/2000/svg">
<path d="M21 8.61035L18.0076 8.61035L18.0076 11.5229L21 11.5229L21 8.61035Z" fill="#62B0E5"/>
<path d="M18.0058 8.61035L15.0117 8.61035L15.0117 11.5229L18.0058 11.5229L18.0058 8.61035Z" fill="#62B0E5"/>
<path d="M18.0058 5.73859L15.0117 5.73859L15.0117 8.60869L18.0058 8.60869L18.0058 5.73859Z" fill="#62B0E5"/>
<path d="M15.0117 20.1266L11.9715 20.1266L11.9715 23L15.0117 23L15.0117 20.1266Z" fill="#62B0E5"/>
<path d="M15.0117 17.2615L11.9715 17.2615L11.9715 20.1299L15.0117 20.1299L15.0117 17.2615Z" fill="#62B0E5"/>
<path d="M15.0117 14.3881L11.9715 14.3881L11.9715 17.2615L15.0117 17.2615L15.0117 14.3881Z" fill="#62B0E5"/>
<path d="M15.0117 11.5213L11.9715 11.5213L11.9715 14.3897L15.0117 14.3897L15.0117 11.5213Z" fill="#62B0E5"/>
<path d="M15.0117 8.61035L11.9715 8.61035L11.9715 11.5229L15.0117 11.5229L15.0117 8.61035Z" fill="#62B0E5"/>
<path d="M15.0117 5.73859L11.9715 5.73859L11.9715 8.60868L15.0117 8.60869L15.0117 5.73859Z" fill="#62B0E5"/>
<path d="M15.0117 2.8685L11.9715 2.8685L11.9715 5.7386L15.0117 5.7386L15.0117 2.8685Z" fill="#62B0E5"/>
<path d="M11.9716 20.1266L8.9791 20.1266L8.97909 23L11.9716 23L11.9716 20.1266Z" fill="#62B0E5"/>
<path d="M11.9716 17.2615L8.9791 17.2615L8.97909 20.1299L11.9716 20.1299L11.9716 17.2615Z" fill="#62B0E5"/>
<path d="M11.9716 14.3881L8.9791 14.3881L8.97909 17.2615L11.9716 17.2615L11.9716 14.3881Z" fill="#62B0E5"/>
<path d="M11.9716 11.5212L8.9791 11.5212L8.97909 14.3897L11.9716 14.3897L11.9716 11.5212Z" fill="#62B0E5"/>
<path d="M11.9716 8.61035L8.9791 8.61035L8.97909 11.5229L11.9716 11.5229L11.9716 8.61035Z" fill="#62B0E5"/>
<path d="M11.9716 5.73859L8.9791 5.73859L8.97909 8.60869L11.9716 8.60869L11.9716 5.73859Z" fill="#62B0E5"/>
<path d="M11.9716 2.8685L8.9791 2.8685L8.97909 5.7386L11.9716 5.7386L11.9716 2.8685Z" fill="#62B0E5"/>
<path d="M11.9716 3.10408e-05L8.9791 3.05176e-05L8.97909 2.87013L11.9716 2.87013L11.9716 3.10408e-05Z" fill="#62B0E5"/>
<path d="M8.98073 20.1266L5.98657 20.1266L5.98657 23L8.98073 23L8.98073 20.1266Z" fill="#62B0E5"/>
<path d="M8.98073 17.2615L5.98657 17.2615L5.98657 20.1299L8.98073 20.1299L8.98073 17.2615Z" fill="#62B0E5"/>
<path d="M8.98073 14.3881L5.98657 14.3881L5.98657 17.2615L8.98073 17.2615L8.98073 14.3881Z" fill="#62B0E5"/>
<path d="M8.98073 11.5212L5.98657 11.5212L5.98657 14.3897L8.98073 14.3897L8.98073 11.5212Z" fill="#62B0E5"/>
<path d="M8.98073 8.61035L5.98657 8.61035L5.98657 11.5229L8.98073 11.5229L8.98073 8.61035Z" fill="#62B0E5"/>
<path d="M8.98073 5.73859L5.98657 5.73859L5.98657 8.60869L8.98073 8.60869L8.98073 5.73859Z" fill="#62B0E5"/>
<path d="M8.98073 2.8685L5.98657 2.8685L5.98657 5.7386L8.98073 5.7386L8.98073 2.8685Z" fill="#62B0E5"/>
<path d="M5.98659 8.61035L2.99414 8.61035L2.99414 11.5229L5.98659 11.5229L5.98659 8.61035Z" fill="#62B0E5"/>
<path d="M5.98659 5.73859L2.99414 5.73859L2.99414 8.60869L5.98659 8.60869L5.98659 5.73859Z" fill="#62B0E5"/>
<path d="M2.99416 8.61035L0 8.61035L-5.09251e-07 11.5229L2.99416 11.5229L2.99416 8.61035Z" fill="#62B0E5"/>
</svg>
